PathFileType	4	(X/Y/Z)	C:\Users\WrightLab\Desktop\Jo\P5V124.trc
DataRate	CameraRate	NumFrames	NumMarkers	Units	OrigDataRate	OrigDataStartFrame	OrigNumFrames
100.00	100.00	       14	19	mm	100.00	235	       624
Frame#	Time	Headset_Front			Headset_Back			Headset_Left			Headset_Right			Left_Shoulder			Right_Shoulder			Sternum			C7			Left Elbow			Right Elbow			Left Wrist			Right Wrist			Left ASIS			Right ASIS			S2			Left Knee			Right Knee			Left Ankle			Right Ankle			
		X1	Y1	Z1	X2	Y2	Z2	X3	Y3	Z3	X4	Y4	Z4	X5	Y5	Z5	X6	Y6	Z6	X7	Y7	Z7	X8	Y8	Z8	X9	Y9	Z9	X10	Y10	Z10	X11	Y11	Z11	X12	Y12	Z12	X13	Y13	Z13	X14	Y14	Z14	X15	Y15	Z15	X16	Y16	Z16	X17	Y17	Z17	X18	Y18	Z18	X19	Y19	Z19	

235	2.340	177.14859	1563.14966	87.16164							114.06654	1611.22925	-41.23401	499.69531	1507.36951	-98.23395	99.34889	1439.83521	-169.28244	285.32651	1328.06677	-37.14304	312.28586	1520.03174	-255.23256	617.36395	1236.82471	-95.32061	40.48246	1181.95471	-296.54871	662.37299	1007.24628	-3.74196	6.60049	994.98065	-136.97891	449.45261	948.03503	4.72075	184.08330	940.30011	-90.05795	452.33154	980.69916	-305.05533	532.03461	523.76178	39.26171	234.12758	483.68665	-174.78661	525.21533	126.14809	161.81290	329.40350	115.70503	-355.44528	
236	2.350	175.64182	1562.68884	93.62505							113.21062	1610.86218	-35.29529	499.42862	1506.60950	-88.06815	99.67453	1439.83008	-163.80226	283.87775	1327.35046	-29.54188	313.16760	1518.98303	-247.59354	618.18317	1235.59729	-84.63944	42.65587	1181.56360	-292.27667	661.16986	1006.58551	8.18674	6.26807	994.26196	-133.96011	446.61090	947.53333	14.07994	182.78041	940.00232	-83.27637	453.56699	980.22632	-295.86063	529.65460	523.00159	48.78378	235.18942	482.98224	-170.34097	519.34277	124.23905	169.24564	329.67261	117.24784	-354.35428	
237	2.360	173.88382	1562.05249	99.53473							112.57162	1610.40002	-29.45391	498.91577	1505.64868	-77.73772	98.94924	1440.08423	-158.59253	282.48242	1326.65088	-22.25606	314.98642	1518.21936	-239.16562	616.17139	1235.41528	-72.69933	45.09314	1181.35022	-288.15814	659.54883	1005.61926	20.67658	5.87308	993.13690	-130.84970	444.66531	947.03479	24.20692	179.39218	939.95215	-76.84621	454.83884	978.94690	-286.47321	527.71320	522.14081	57.60770	235.63803	482.77338	-165.62415	514.09125	122.33321	175.37892	330.14023	118.87234	-353.08490	
238	2.370	171.55475	1561.68835	106.01773							111.89735	1609.93018	-23.88972	497.71051	1504.77454	-67.73346	99.48538	1439.68677	-153.58171	281.17676	1326.34143	-14.69997	316.67722	1517.41406	-231.27007	615.83301	1234.21289	-60.00327	47.59918	1180.67700	-283.72015	657.98950	1004.72107	32.78693	5.66391	992.23297	-128.08372	441.26498	945.75848	32.80464	178.22313	939.73877	-69.88257	455.61661	977.67957	-276.75912	524.87396	521.46075	68.19343	236.52553	481.87000	-160.39250	509.49222	119.52551	179.85893	330.28976	120.84863	-352.07922	
239	2.380	169.51988	1561.33972	112.49093							111.35078	1609.36182	-18.23398	498.66388	1503.62817	-57.60985	100.09527	1439.38086	-148.39331	279.57870	1325.89966	-7.31813	318.58017	1515.89307	-222.97002	615.52301	1233.21594	-48.97145	49.92620	1180.05347	-279.60150	656.62622	1003.59344	45.30898	5.31015	991.52307	-124.96646	439.36728	945.98108	44.53967	176.99911	939.27777	-63.21776	456.69553	976.34351	-266.17429	521.58374	520.02765	75.63716	237.14662	481.57886	-155.05359	505.35867	116.21787	184.49394	330.57925	122.52323	-350.08624	
240	2.390	167.28911	1561.06677	118.62032							110.78434	1608.79614	-12.92025	498.21408	1502.84497	-47.40974	100.69476	1438.68982	-143.51135	277.95370	1325.34253	0.53416	320.19833	1514.87195	-214.96004	614.26831	1231.80652	-37.08263	52.30659	1179.91687	-275.91135	654.39087	1002.70978	58.44841	4.49414	991.02203	-121.50505	436.85944	944.78912	55.14523	175.51886	938.98468	-56.25710	457.19571	974.90015	-256.32755	518.87720	518.70697	86.14256	237.34360	481.71909	-148.53551	503.00610	112.83204	188.20029	330.81366	124.64431	-348.83862	
241	2.400	165.58788	1560.90234	124.48833							110.23122	1608.29102	-7.66536	497.94464	1502.42725	-36.76954	101.69631	1438.17004	-138.78093	276.31830	1325.01904	8.07201	321.82758	1512.83032	-206.02657	614.27356	1230.88159	-24.28135	55.22250	1178.73853	-271.37827	652.79700	1001.55890	70.90517	4.16152	990.62805	-117.53748	433.43289	943.73401	64.43748	174.50090	938.33661	-48.65458	457.85602	973.60736	-246.23985	515.41669	516.83075	95.33414	238.65807	480.54819	-143.33420	501.14490	109.95717	190.53162	330.94843	126.85210	-347.64374	
242	2.410	163.38881	1560.36694	130.12306							109.79671	1607.73633	-2.42647	497.46576	1500.72009	-25.98354	102.56242	1437.57117	-133.75180	274.86023	1324.22668	16.49741	323.68723	1511.74255	-198.07208	613.17969	1229.13037	-11.96306	57.89788	1178.25098	-267.83545	650.14502	1000.28076	83.83182	4.28648	989.77942	-114.43983	429.81961	943.00092	76.31687	173.11674	937.80609	-41.32940	458.98898	971.68726	-236.42174	511.19153	514.57062	103.62218	238.50470	480.36746	-136.35695	499.90546	109.00941	194.09880	330.83307	129.08350	-345.08661	
243	2.420	160.80490	1560.30042	136.38945							109.13077	1607.30652	2.76586	496.81549	1499.52539	-16.21365	103.43139	1436.69067	-128.69785	272.83609	1323.58569	24.82002	325.54697	1510.46167	-190.82280	612.54230	1227.88232	0.02147	60.69979	1177.55615	-263.73935	648.44727	998.94928	96.54752	4.01507	989.49396	-111.78038	426.83643	942.28143	87.69006	172.05812	937.21021	-33.40921	459.26575	969.59003	-225.37923	507.64273	511.89746	113.87152	239.31041	479.02917	-130.29063	497.97006	107.69910	194.85217	330.92532	131.85199	-343.68188	
244	2.430	158.76425	1560.30847	142.70770							108.56564	1607.14722	7.92604	495.93353	1498.43005	-4.71827	104.56499	1435.92456	-123.98789	271.56931	1322.82544	32.11684	327.94711	1509.71973	-182.86671	612.11957	1226.43970	12.16757	63.10513	1177.25500	-261.05374	645.75165	997.55945	110.00536	4.05048	988.72009	-108.56512	423.84586	941.79791	99.00124	171.54776	936.08386	-25.99996	459.71317	968.20398	-216.01521	503.24466	509.55075	121.85271	239.13857	478.56570	-123.21006	497.43796	106.87006	194.23210	331.21243	134.52097	-340.63809	
245	2.440	156.31720	1561.00073	148.13910							107.70549	1607.46765	13.44506	496.17746	1497.62634	5.01793	106.70654	1434.90662	-119.95318	269.48166	1323.19617	39.65531	330.28763	1509.14771	-173.83752	610.03320	1225.64233	25.33388	66.30392	1176.52979	-256.04791	643.69232	996.76459	123.21542	2.82579	988.46790	-106.38689	420.14648	941.28918	110.21548	168.84261	936.36786	-17.60483	460.02640	966.78827	-205.17274	498.57956	507.79102	132.94765	239.67647	477.19897	-116.34867	495.93530	105.97575	192.56242	330.36993	138.53865	-336.87354	
246	2.450	153.39494	1561.98120	154.10864							106.63774	1608.49805	18.93457	494.85553	1497.13318	15.10297	107.47205	1435.00427	-115.71227	269.00943	1323.77979	47.07816	332.12238	1509.32166	-165.07756	608.71271	1225.52441	37.57251	67.60348	1176.66675	-254.02505	639.90021	996.39392	136.44832	2.67569	988.46069	-103.86345	416.85986	941.10468	121.00436	167.10950	936.27490	-9.26232	460.62363	966.54309	-195.50093	494.51309	507.79782	142.14211	239.86218	475.72794	-108.75561	495.79547	106.86591	194.25363	330.83554	143.31970	-334.10287	
247	2.460	150.19691	1563.17798	160.10139							105.34361	1609.90039	24.44101	493.35031	1495.87195	25.85638	108.83754	1435.37561	-112.03020	266.60175	1324.94995	53.66950	333.58228	1510.03540	-156.70308	606.10291	1226.06909	50.82445	70.52534	1177.31482	-249.03284	636.15887	995.66302	148.89687	2.51324	988.41522	-100.62477	412.62900	941.24744	132.12216	167.07697	936.43402	-1.62422	462.46631	966.59485	-186.31462	490.19781	509.44409	151.39745	240.31319	475.16666	-100.51875	496.44666	108.44651	196.22176	330.59372	148.00542	-328.49075	
248	2.470	147.70665	1564.33020	166.32042							104.36536	1611.30542	29.73352	492.37070	1497.82056	36.85128	109.39293	1436.82043	-108.23008	264.51624	1326.02417	60.78042	335.13519	1510.98682	-148.87938	603.37085	1226.26733	62.82802	74.31004	1177.45361	-243.66129	632.62433	996.56134	162.25783	2.56749	988.59845	-97.89392	409.19989	941.73242	141.53252	165.51357	936.95862	5.46956	462.71228	967.38434	-176.12628	486.07339	512.26123	160.39761	240.58430	474.63147	-91.97522	496.51147	108.08870	197.26695	330.94644	153.80669	-322.32303	
